<?xml version="1.0" encoding="UTF-8" standalone="no"?>
<svg
   xmlns:dc="http://purl.org/dc/elements/1.1/"
   xmlns:cc="http://creativecommons.org/ns#"
   xmlns:rdf="http://www.w3.org/1999/02/22-rdf-syntax-ns#"
   xmlns:svg="http://www.w3.org/2000/svg"
   xmlns="http://www.w3.org/2000/svg"
   xmlns:sodipodi="http://sodipodi.sourceforge.net/DTD/sodipodi-0.dtd"
   xmlns:inkscape="http://www.inkscape.org/namespaces/inkscape"
   version="1.1"
   id="Kerala"
   x="0px"
   y="0px"
   width="826.759px"
   height="1204.711px"
   viewBox="0 0 826.759 1204.711"
   enable-background="new 0 0 826.759 1204.711"
   xml:space="preserve"
   sodipodi:version="0.32"
   inkscape:version="0.92.4 (5da689c313, 2019-01-14)"
   sodipodi:docname="India_Kerala_districts_outline.svg"
   inkscape:output_extension="org.inkscape.output.svg.inkscape"><metadata
   id="metadata2777"><rdf:RDF><cc:Work
       rdf:about=""><dc:format>image/svg+xml</dc:format><dc:type
         rdf:resource="http://purl.org/dc/dcmitype/StillImage" /><dc:title></dc:title></cc:Work></rdf:RDF></metadata><defs
   id="defs2775"><inkscape:perspective
     sodipodi:type="inkscape:persp3d"
     inkscape:vp_x="0 : 602.35553 : 1"
     inkscape:vp_y="0 : 1000 : 0"
     inkscape:vp_z="826.75897 : 602.35553 : 1"
     inkscape:persp3d-origin="413.37949 : 401.57035 : 1"
     id="perspective2779" /></defs><sodipodi:namedview
   inkscape:window-height="1000"
   inkscape:window-width="1920"
   inkscape:pageshadow="2"
   inkscape:pageopacity="0.0"
   guidetolerance="10.0"
   gridtolerance="10.0"
   objecttolerance="10.0"
   borderopacity="1.0"
   bordercolor="#666666"
   pagecolor="#ffffff"
   id="base"
   showgrid="false"
   inkscape:zoom="0.63742916"
   inkscape:cx="172.28687"
   inkscape:cy="754.1904"
   inkscape:window-x="-11"
   inkscape:window-y="-11"
   inkscape:current-layer="Kerala"
   inkscape:window-maximized="1" />



<polygon
   fill="none"
   stroke="#0978AB"
   stroke-width="1.2756"
   stroke-linejoin="round"
   stroke-miterlimit="3.8637"
   points="145.207,191.648 148.909,202.021 156.606,223.586 159.347,229.158 159.746,228.082 158.153,224.996 155.549,218.254 155.318,217.677 153.434,211.521 152.239,209.611 150.856,204.203 149.66,201.624 148.971,198.877 147.52,195.97 146.565,191.31 145.469,191.147"
   id="polygon2636" />
<polygon
   fill="none"
   stroke="#0978AB"
   stroke-width="1.2756"
   stroke-linejoin="round"
   stroke-miterlimit="3.8637"
   points="431.627,744.357 433.618,749.604 434.46,749.798 434.009,747.199 432.167,744.403"
   id="polygon2638" />
<polygon
   fill="none"
   stroke="#0978AB"
   stroke-width="1.2756"
   stroke-linejoin="round"
   stroke-miterlimit="3.8637"
   points="440.782,762.71 440.88,761.726 439.777,757.997 436.897,755.295 436.154,753.432 435.752,753.536 435.65,754.466 436.699,757.213 436.603,759.865 436.946,761.287 438.646,762.609 440.782,762.71"
   id="polygon2640" />
<polygon
   fill="none"
   stroke="#0978AB"
   stroke-width="1.2756"
   stroke-linejoin="round"
   stroke-miterlimit="3.8637"
   points="427.097,737.438 426.651,737.73 426.605,739.204 429.048,745.728 429.742,748.826 431.528,750.344 431.982,749.95 431.776,748.97 428.64,739.89 427.097,737.438"
   id="polygon2642" />
<polygon
   fill="none"
   stroke="#0978AB"
   stroke-width="1.2756"
   stroke-linejoin="round"
   stroke-miterlimit="3.8637"
   points="427.554,749.806 427.902,748.919 427.606,745.096 426.96,744.26 426.756,742.15 425.909,742.2 425.663,744.064 426.112,746.716 426.959,749.263 427.554,749.806"
   id="polygon2644" />
<polygon
   fill="none"
   stroke="#0978AB"
   stroke-width="1.2756"
   stroke-linejoin="round"
   stroke-miterlimit="3.8637"
   points="412.778,721.38 412.598,720.76 411.652,719.878 411.616,721.379 412.199,724.289 413.193,726.941 414.037,727.624 414.784,727.528 413.096,723.161"
   id="polygon2646" />
<polygon
   fill="none"
   stroke="#0978AB"
   stroke-width="1.2756"
   stroke-linejoin="round"
   stroke-miterlimit="3.8637"
   points="415.721,721.374 414.88,718.55 414.873,715.071 414.476,714.63 413.94,714.678 413.588,717.032 414.856,721.386 416.119,726.105 416.767,726.397 416.92,725.369"
   id="polygon2648" />
<path
   fill-rule="evenodd"
   clip-rule="evenodd"
   fill="none"
   stroke="#0978AB"
   stroke-width="1.2756"
   stroke-linejoin="round"
   stroke-miterlimit="3.8637"
   d="  M398.526,699.313l2.634,9.549l1.982,7.195l2.165,6.767l0.144,0.441l2.803,5.843l1.576,1.146l0.382,0.267l0.755-1.619l-0.051-1.178  l-1.041-2.45l0.046-1.375l0.547-1.13l-0.75-0.688l-0.108-0.717l-0.183-1.145l-0.645-0.687l-0.051-1.036l0.39-0.683l-1.286-3.334  l0.052-2.649l-0.449-1.074l0.69-0.983l-3.618-8.534l-1.538-4.558l-1.24-5.15c0,0-0.718-5.173-1.593-6.923s-1.875-4-2.375-4.875  s-1.25-1.875-2-1.5s-1.125,0.875-1.125,1.875s2.25,4.375,3,5.75s1,6.5,2.25,7.875s2,3.625,1.375,4s-3.5-0.625-3,1  S398.526,699.313,398.526,699.313z"
   id="path2650" />
<path
   fill-rule="evenodd"
   clip-rule="evenodd"
   fill="none"
   stroke="#0978AB"
   stroke-width="1.2756"
   stroke-linejoin="round"
   stroke-miterlimit="3.8637"
   d="  M66.722-0.005l0.036,0.198l1.968,7.797l0.728,2.878l2.73,14.905l2.736,9.41l0.813,1.66l0.559,0.401l-0.039,1.512l0.308,0.603  l-0.296,1.211l2.658,5.227l1.232,3.628l2.231,2.256l1.692,5.026l1.359-0.208l-0.189,1.057l0.148,0.494l0.108,0.363l-0.703,0.461  l0.06,0.757l2.289,5.649l1.55,3.808l0.604,0.495l1.463-0.261l1.226,2.014l-1.824-0.576l1.799,5.06l2.447,4.625l3.531,8.399  l0.872,3.327l2.132,2.857l-0.092,0.709l4.141,10.006l1.541,5.341l0.512,0.649l1.786,3.976l0.058,1.211l4.718,9.557l0.991,1.955  l2.547,5.127l0.485,0.375l0.171,0.127l1.955-0.816l1.101,0.094l0.407,0.502l-1.903,1.218l-0.243,0.556l0.618,2.824l1.265,1.252  l0.415,1.613l1.312,1.151l0.315,2.169l0.912,0.75l0.688-1.633l0.4-0.944l0.164-0.402l1.234-0.87l0.295,0.355l-0.328,1.057  l-0.256,0.495l-0.65,1.272l-0.885,1.727l0.557,1.004l1.812,0.141l0.452,0.449l3.471,8.553l1.272,1.861l0.106-0.877l0.648,1.279  l-0.348,0.756l1.326,2.664l3.32,8.808l2.44,5.08l0.723,2.871l2.604,6.72l1.565,4.033l0.115,0.211l0.074-4.263l0.666-0.299  l0.512-1.038l-0.145-1.3l1.012,0.057l0.143,1.744l1.972,0.063l1.928-0.785l0.419-0.088l3.052-0.648l0.645-0.14l0.921-1.793  l0.242,1.549l-0.967,1.141l-0.578,0.101l-1.707,0.284l-1.148,0.717l-0.681,0.424l-1.567,0.191l-1.785,0.837l-1.524,1.437  l-0.006,0.903l0.657-0.042l1.311,1.001l-0.465,1.149l0.15,0.901l1.005,0.999l1.773,0.113l0.354,0.701l-0.209,1.65l0.232,2.844  l0.909,1.654l1.513,0.21l-0.065,2.751l0.437,2.453l1.409,2.455l-0.258,1.244l1.147,2.604l0.965-0.139l0.506,0.952l0.435,3.203  l1.511,1.709l1.721,0.008l-0.359,0.995l0.658,1.104l-1.278,1.542l-1.024,0.548l-0.461,1.043l2.058,5.136l0.963,3.99l0.165,2.027  l1.471,2.811l0.616,2.015l0.957,1.459l1.058-0.054l0.544-0.663l2.408-0.16l0.604-0.562l0.191-1.513l0.997-1.365l0.597,0.047  l2.422,1.7l2.676,2.41l1.011,1.907l6.476,9.149l3.13,2.958l1.234-0.222l0.269-0.04l-0.306-1.009l-1.417-0.91l-2.107-2.864  l-0.208-0.955l-0.808-0.399l-1.051-3.053l-2.528-2.02l-0.901-1.701l-0.346-2.254l0.752-1.807l0.172-0.437l1.018-0.596l2.993-0.034  l1.064,0.404l1.109,1.91l0.957,0.3l0.307-0.563l0.151-0.282l-0.81-2.118l0.423-0.587l1.105,1.333l0.167-1.723l1.785-2.842  l0.762-0.542l0.875,1.02l-1.142,2.022l-1.119,0.498l-0.564,1.143l0.14,2.151l0.86,0.606l5.175,0.027l0.924,0.849l0.991,0.912  l2.03,0.305l1.175-0.536l1.112,0.203l-1.481,1.139l-1.057,0.197l-1.625-0.256l-2.128-1.659l-3.243-0.521l-0.515,1.794l-1.414-1.151  l-1.827,0.039l-0.958-0.554l-1.02,0.196l-1.151-1.756l-0.911-0.652l-1.421-0.308l-0.96-0.011l-0.35,0.287l-0.622,0.512l-0.358,1.197  l0.401,1.951l1.345,1.636l0.263,0.321l0.968-0.241l1.403,2.406l1.167,0.906l2.016,3.061l0.699,2.301l1.708,2.262l0.709-0.044  l-2.108-4.612l1.273,0.157l0.856,0.749l-0.309,0.801l1.75,4.466l0.708,0.495l1.08,0.031l1.664,0.039l1.972,1.408l1.08,0.424  l1.35,0.538l1.624,0.256l0.454-0.446l0.422-2.497l1.524-1.746l0.607-1.167l0.627-1.223l1.221-1.494l1.481-0.644l1.976-0.244  l1.631-1.242l0.074-5.751l0.337-0.462l1.911-2.629l1.624-0.688l2.989,0.014l3.001-1.791l0.708,0.15l0.855,1.208l5.213,4.621  l-1.726-0.354l-1.417-1.358l-2.681-1.712l-3.654,1.236l-3.343-1.064l-0.811,0.441l-1.022,1.345l-0.874,1.698l-0.108,0.782  l-0.203,1.371l0.342,3.102l-0.457,1l-0.868,0.795l-1.067,0.294l-2.544,2.437l-0.895,0.35l-0.894,0.981l-0.564,1.859l1.254,3.457  l0.558,0.153l0.664-1.195l0.455,0.003l0.25,1.15l0.909,0.707l0.397,1.102l0.915,0.403l1.115-0.249l0.771,0.359l0.708,0l1.461,0.007  l-1.017,1.746l-1.398-0.087l-0.28-0.016l-0.658,0.898l-0.561,0.049l-0.701-1.159l-2.387-0.515l-0.502-0.749l0.152-0.8l-0.402-0.805  l-1.42-0.106l-0.75-2.802l-1.167-0.105l-0.614,1.251l-1.066,0.945l-3.25-0.071l-0.354-0.084l-1.216-0.268l-5.614-2.833l-2.695-0.556  l-0.059,0.185l-0.419,0.531v0.71l3.188,5.174l0.216,2.222l0.959,1.004l0.952,0.448l4.291,4.772l2.381,4.578l1.562,1.553l0.741,0.234  l0.218,0.067l0.753,0.904l0.748-1.52l0.283-0.194l0.519-0.361l0.701,0.047l0.467,0.362l2.755,2.142l3.024,2.911l3.833,4.625  l1.816,1.707l1.2,0.649l2.73,3.922l0.465,2.068l0.802,0.75l1.357,0.194l0.532-0.314l-1.029,1.479l-0.146,0.556l1.963,1.506  l1.751-0.06l0.447-1.165l0.209-0.026l0.492-0.074l0.144,0.542l0.165,0.616l0.31,1.968l1.212,1.606l1.307,1.051l1.62,2.67l0.8,0.502  l1.155,0.094l1.011,0.703l1.968,3.366l2.316,2.008l1.911-0.161l1.193-0.1l0.71,0.602l-1.05,0.281l-0.853,0.228l-0.348,0.455  l0.097,1.01l1.314,1.406l0.662,2.316l1.063,1.867l2.167,2.711l0.564,3.226l1.521,4.384l2.39,6.197l1.049,2.122l0.723,1.445  l1.017,4.638l0.559,0.81l0.602,0.094l0.276-0.529l-0.813-1.734l0.368-0.006l0.859,1.365l1.26,0.342l1.975,1.92l-0.415,0.796  l-0.897-0.147l-1.313-1.405l-0.348,0.609l0.611,0.803l0.664,2.369l0.413,2.336l-0.301,0.689l-1.536-4.25l-0.912-1.573l-0.362,0.429  l4.75,11.605l0.847,2.062l0.504,1.245l1.53,5.395l2.211,1.707l1.108,1.961l1.155,0.094l0.845-0.911l1.202-0.254l2.855,0.489  l1.206,0.448l2.467,2.771l1.299,0.596l1.982,2.523l4.278,8.299l0.899,0.856l2.828,5.435l2.021,5.187l0.771-0.144l0.207-0.14  l0.168-0.03l1.202-0.318l0.537-0.141l0.817-1.157l-1.012-1.456l-0.353-1.308l1.75-9.677l-0.761-1.155l-1.829-0.405l-1.015-0.905  l-1.666-3.819l0.173-0.752l0.696-0.752l0.153,0.761l0.392,1.954l1.07,1.503l1.066,1.157l0.968,0.052l1.013-0.403l0.205,0.91  l0.865,1.155l1.577,1.158l-0.468,0.502l-1.675-0.757l-0.24,0.483l0.061,0.367l0.122,0.852l-0.82,4.367l0.25,2.409l-0.725,1.247  l1.115,2.165l1.121,1.06l-2.186,1.2l0.241,2.834l0.434,0.734l0.857,0.206l1.707-0.277l1.333-0.978l1.122,0.354l0.511-0.7  l0.096-0.802l-0.345-0.854l0.765-2.209l0.759,0.052l0.103,0.709l-0.561,1.246l0.66,0.105l1.266,0.957l1.072-0.396l0.004,0.798  l1.745,1.489l-0.206,0.522l-1.239-0.904h-1.32l-0.974-1.012l-0.858,0.356l-0.925,1.653l-0.456-0.102l-0.353,1.374l-1.98-0.557  l-0.48,0.162l-0.048,0.473l1.239,1.459l0.271,0.889l-3.474-1.226l-1.453-1.882l-0.248-3.783l-0.232-0.033l-0.197-0.027l-0.641-0.086  l-0.317,0.462l-0.185,0.299l0.121,1.488l-1.24,2.43l0.907,1.051l0.204,0.857l3.163,2.817l0.714,3.273l2.534,8.011l0.256,2.122  l1.516,3.373l0.504,1.954l0.459,1.774l0.552,0.502l1.096-0.81l0.256,0.703l-0.644,1.968l1.108,3.279l4.594,10.421l0.453,0.101  l0.748-1.111l1.555,2.37l-2.251-0.301l0.204,1.211l2.159,2.215l1.471,4.183l0.636,0.295l1.488-1.392l0.656,1.285l-0.833,0.609  l-0.5,0.796l0.007,0.77l0.295,0.723l1.372,3.36l1.009,4.029l1.163,2.972l2.84,11.746l0.951,1.058l-0.295,0.957l0.323,2.825  l0.537,2.055l5.178,19.818l1.936,9.778l1.62,8.165l1.923,6.452l0.847,5.736l0.229-3.674l0.643,0.964l0.191,0.85l0.445,0.046  l0.367-0.295l0.359-0.234l0.845-0.658l2.194,0.154l2.75-0.898l1.646-2.463l1.434-1.21l0.248,1.311l-0.665,1.657l-1.281,0.403  l-3.112,3.064l-2.605,1.714l-0.422,0.21l-0.748,0.471l-0.348,0.609l0.157,0.803l1.103,1.211l0.5,1.104l0.564,3.681l1.411,3.574  l1.705,2.168l0.708,2.918l5.434,13.198l4.435,9.391l2.546,5.367l1.252,1.359l5.481,13.807l1.2,1.406l0.755-0.201l0.189-1.358  l2.5,0.294l-0.348,0.502l-0.569,0.201l-0.73,0.261l-0.097,0.904l3.314,6.398l1.049,1.057l0.959,2.215l0.569,2.483l-1.141-0.595  l-2.055-4.016l-0.604,0.188l3.793,7.744l3.208,6.546l1.2,1.807l4.823,11.947l2.718,7.597l2,5.602l2.172,8.968l1.858,5.75l2.06,8.989  l2.572,11.217l0.303,0.301l0.544-0.502l0.052-1.111l-0.433-0.312c0,0-0.5-3.125,1.75-3.75s3.875-1.25,5.125-1.625s3-1,3.875-1  s2.25,0.125,1.625-2s-2.375-4.5-2.5-5.5s-1-3.625-2.375-5.625s-2.75-2.125,0.125-1.875s4.75-0.875,5.625,0.5s1.5,1.5-0.75,1.75  s-1.125,2.75-0.625,4s0.75,3,1.5,3.625s1.25,0.375,2-0.25s2.375-0.75,2.75,0.125s-0.25,1.75-0.5,2.375s-2.25,4.875-0.875,5.625  s3.625,4.125,5.875,4.625s3.875,2.25,4.875,3.75s5.625,2.625,8,1.375s4.125-1.5,5.25-0.25s1.125,2.625,1.125,2.625  s-3.75-2-4.625-1.125s-5,3.375-7.125,1.75s-4.25-4.625-6.375-5.5s-3.375-1.875-5.5-3.5s-2.625-2.75-3.375-3s-2.625-0.125-4.25,0  s-3.5,0.25-3.375,0.875s1.5,5.25,2.625,6.625s2,3.25,2,3.25l0.184,4.31l0.882,1.027l-0.547,0.934l0.401,0.637l0.587-0.053  l0.749,1.129l-0.948,1.615l4.52,8.193l0.442-0.25l0.148-0.583l-0.392-2.988l-2.38-6.331l0.541,0.002l0.597,0.832l1.438,3.432  l0.946,0.879l0.841,0.198l0.397,0.736l-0.497,0.936l0.144,1.322l0.896-0.245l0.496,0.932l-1.883,1.715l-0.446,1.133l1.588,3.922  l1.194,1.322l0.649-0.196l0.74-0.979l1.245,0.782l0.293,0.636l0.001,1.376l0.497,1.224l2.036,2.062l1.096,0.046l0.54-0.932  l-0.398-0.932l0.5-0.689l0.692,0.1l0.45,1.027l-0.893,2.409l-0.999,0.975l-1.385-1.12l-0.792-0.054l-0.252,0.637l0.571,2.438  l0.249,1.081l0.229,0.996l-0.495,2.304l0.098,2.056l0.747,1.86l2.139,5.312l4.07,6.126l-0.1-2.99l1.087-1.965l0.254-1.569  l-0.701-2.6l0.644-1.124l1.449,5.212l0.891,3.225l1.646,1.562l1.437,3.196l0.795,0.197l0.243-1.625l0.847,0.249l1.542,2.256  l0.696-0.637l0.743,0.145l2.492,4.17l3.482,8.246l0.202,0.784l-0.398,1.427l0.494,1.324l1.05-0.001l1.292-0.539l0.564,0.716  l0.329,0.999l-0.15,0.59l-0.817-0.272l-0.72-0.711l-0.198,0.735l0.346,1.722l0.45,0.785l1.042,0.344l0.707,1.044l0.985,1.46  l0.403,1.867l-0.198,0.835l-0.656-1.484l-0.344-0.773l-2.144-2.259l-0.039,2.256l-1.246,2.603l-1.73,2.312l-1.241-0.443  l-0.001,2.209l0.894,1.227l1.096,3.39l1.843,1.468l0.542,1.033l0.357,1.819l-0.155,1.181l-0.779,6.039l-0.65,1.482l0.103,1.369  l1.887-0.195l1.638,0.641l1.694-2.61l-0.003,2.601l1.882,1.593l0.316,0.668l-0.297,0.764l-1.488,3.808l-0.054,0.639l1.613,1.72  l0.825,0.886l0.952,1.668l-0.601,1.327l1.401,1.476l-0.653,0.541l-1.192,0.442l1.596,1.521l0.649,1.422l0.299,1.966l-2.026,8.849  l-0.697,0.105l-0.195,0.739l1.346,2.703l0.842,0.932l7.562-0.943l-1.193,0.691l-2.282,1.127l2.085,0.249l1.897,0.883l3.783,0.737  l2.185-0.008l2.688,1.866l0.798,0.098l0.793-1.575l0.544-3.639l0.9,1.573l0.153,2.112l0.149,0.654l-1.494,1.958l-0.794,0.74  l-0.892,0.242l-2.543,0.052l-0.295,0.835l0.301,2.17l-0.446,1.472l-1.838,1.184l-1.641-0.788l-3.191-0.633l-3.433-0.198l0.056,3.648  l-0.549-0.399l-2.286-0.092l-1.194-0.445l-0.757-3.444l-1.206,0.001l-1.286,0.444l-0.884,2.66l-0.506-1.575l-1.284-0.144  l-0.905-1.823l-2.088-0.589l-1.445,0.006l-1.242,1.325l-0.696,0.098l-0.199-0.979l0.799-1.531l-1.001,0.348l-1.392-0.146  l-0.84-0.465l-0.753-0.425l-1.395-1.471l0.735-7.279l-0.195-0.836l0.548-1.279l1.539-1.525l0.545-1.619l-0.396-3.245l0.19-0.694  l1.093-3.436l1.445-1.627l0.942-2.603l0.44-3.198l0.599-1.181l1.442-1.029l0.392-1.032l-0.351-4.075l-1.885-0.153l-3.934-2.403  l-0.944-1.966l-0.049-1.127l1.39-2.803l-0.254-2.411l1.045-2.154l-0.508-1.625l0.103-1.67l-0.551-2.211l0.148-3.142l-1.792-5.109  l0.342-2.057l0.994-1.429l-0.397-1.52l-3.084-2.015l-0.993-1.034l-2.537-8.585l-0.605-0.887l-0.792-0.292l-1.688,0.395L429,756.675  l0.466,3.582l0.184,1.379l0.497,1.371l1.74,1.421l1.5,2.852l-0.251,1.57l-0.796,0.494l0.052,1.229l0.442,1.033l1.745,0.292  l-0.152,1.085l-1.186,2.45l2.045,5.548l0.795,4.815l-0.191,2.8l0.941,2.065l-1.293,0.489l-0.994,3.347l-1.19,0.097l-1.59-1.228  l-0.349-1.227l0.692-1.917l0.201,1.867l0.952,0.445l0.786-2.317l0.796-0.933l-1.741-5.153l-0.693,1.322l-0.701-1.378l-1.44-1.077  l1.341-0.149l0.845-2.406l-0.855-5.942l-1.686-2.699l-0.997-0.101l1.097-1.278l-0.01-0.886l-0.843-1.128l-1.099-12.431l-0.053-0.626  l0.199-1.622l0.547-1.03l-0.8-1.127l-1.189-0.249l-1.461-1.102l-1.567,0.024l-0.247,1.471l0.399,2.508l0.494,2.061l1.047,1.521  l-0.24,4.57l-0.701-0.498l-0.646-2.84l-1.047-0.198l0.154,2.846l-0.297,1.031l-2.188,0.442l0.049,3.487l-0.64-0.294l-0.551-1.668  l0.05-1.916l0.642-1.52l-0.343-0.737l-0.647-0.296l-1.34,1.667l0.345-2.894l0.747,0.342l1.139-0.149l0.303-0.78l-0.203-0.738  l-1.341-0.888l1.641-0.833l0.991,0.049l0.844,1.225l0.943,0.152l0.201-0.934l-0.451-2.898l-1.99-5.938l-0.243,1.568l-1.547-0.928  l-0.144,1.475l1.24,2.891l-0.246,0.883l-1.337-0.146l-1.293,1.522l-0.297-2.112l-2.54-6.969l-0.445-2.894l0.941,0.144l0.847,0.987  l1.59,3.188l0.69-0.983l1.046,0.002l1.345-1.132l0.939-0.248l0.551,1.625l0.843,0.933l0.99,0.195l-0.059-1.557l-0.042-1.244  l-0.549-1.518l-1.386-1.523l-2.194-1.181l-0.436-2.643l1.368,1.363l1.794,0.473l0.66-0.077l-1.055-2.252l-0.341-1.81l-0.717-0.686  l-1.475-1.728l-0.502-0.737l-1.086-1.122l-1.338-1.183l-1.223,0.098l-0.521,0.525l-0.697,0.822l-0.829-0.167l-1.984,1.908  l-0.511,0.586l-0.099,1.211l5.669,22.823l0.058,1.967l0.643,2.637l0.159,0.643l2.12,13.406l2.249,8.714l-0.341,1.412l0.755,6.452  l1.213,9.578l0.211,5.642l0.952,4.236l-0.047,1.613l3.274,23.432l1.359,6.639l0.045,0.234l0.44,2.142l1.622,7.965l1.896,6.097  l4.56,12.676l2.882,8.025l2.795,6.954l2.341,4.732l3.091,8.513l3.983,6.392l0.544,1.593l0.506,1.486l3.536,7.55l1.2,4.284  l2.927,6.164l0.159,0.334l0.348,0.201l0.249-0.355l-0.8-2.971l-1.292-1.915l-0.204-1.66l-1.936-4.33l-1.103-4.237l-1.392-2.015  l-2.236-6.151l-0.015-0.696v-0.201l1.247-0.006l0.152-0.348l0.839-0.81l2.691,3.728l0.597,2.47l-0.395,1.312l0.132,1.459  l0.066,0.703l0.8,3.581l1.193,2.771l0.5,2.215l2.094,2.316l1.24,2.115l0.301,2.115l0.65,0.957h0.845l0.295-1.312l-0.204-3.729  l0.795-0.502l3.275-0.709l0.203,0.703l-0.551,0.656l-0.696-0.147l-0.742,0.756h-0.544l-0.295,1.413l1.294,4.986l-0.795,1.058  l-0.099,1.312l0.506,1.613l-0.598,0.502l-1.042-1.813l-0.599,0.401l5.223,12.295l-0.097,0.401l-1.438-1.211l-1.593-2.817  l-0.728-3.246l-1.956-2.523l0.104-0.83l-0.303-0.649l-2.092-4.062l-0.335-0.121l5.709,13.7l3.511,6.874l1.812,3.547l2.84,7.657  l1.05,5.442l0.741,1.613l0.301,2.925l1.694,5.79l0.649,0.957l0.743,0.254l-0.25,1.104l-0.045,1.258l1.248,4.939l1.24,1.961  l1.489,1.767l2.586,1.907l2.572,0.167l1.345,0.087l1.391,0.904l5.657,5.689l1.245,0.856l0.204,0.268l4.365,5.729l1.24,1.158  l1.685,2.818l6.798,8.312l3.878,6.245l2.875,4.632l2.873,3.179l11.904,15.059l4.855,6.198l3.026,2.972l5.399,6.8l3.667,5.341  l1.99,2.202l3.615,3.996l11.188,14.41l4.44,4.879l2.395,2.63l2.475,4.33l0.295,0.355l0.498-0.054l3.563,5.85l0.985,2.463  l2.873,2.924l1.339,0.656l4.351,4.437l1.784,0.556l2.527,1.713l6.378,6.352l5.144,3.734l2.743,2.141l13.091,10.214l1.876,1.165  l3.466,3.48l5.432,5.796l9.352,6.011l1.528,2.416l2.966,1.064l6.87,3.039l5.243,3.982l0.688,1.111v1.713l0.393,0.857l2.566,1.767  l1.391,0.101l0.84-1.205l0.393-0.046l5.349,0.716l2.815,1.566l5.387,0.971l4.206,2.175l2.073,0.642l3.019,0.931l5.144,0.823  l9.883,2.644l5.839,0.468l3.858,0.864l1.521-0.161l0.802-0.081l2.815,1.218l0.281-1.426l0.125-0.636l0.742-0.756l1.437-0.649  l0.249-1.058l-1.384-1.057l-0.132-4.384l0.644-1.205l4.167-3.614l3.615-2.302l3.471-0.542l2.671-0.796l3.722-1.747l1.68-0.301  l1.68,0.061l3.615-0.04l9.507-1.573l5.846-2.048l1.93-0.04l3.372-1.747l1.838-1.76l3.911-1.895l1.64-1.606l0.551-1.305l-0.144-2.47  l4.375-4.765l4.167-2.048l6.897-1.687l0.977-0.241l2.278-1.051l2.485-1.145l3.819-2.403l4.522-3.554l4.855-1.941l4.567-2.798  l3.635-4.718l0.492-0.261l6.405-3.434l0.571-0.194l1.072-0.372"
   id="path2652" />




























<polygon
   fill="#C6ECFF"
   stroke="#0978AB"
   stroke-width="1.2756"
   stroke-linejoin="round"
   stroke-miterlimit="3.8637"
   points="501.75,967.6 502.449,967.652 503.647,966.856 506.683,964.831 506.769,967.215 507.219,967.172 508.268,966.007 509.661,965.149 510.807,965.259 511.248,965.92 509.456,967.43 509.446,969.113 508.946,969.368 508.161,968.086 506.765,969.101 505.573,968.89 505.168,969.751 504.428,969.291 503.433,969.342 503.826,970.255 505.66,971.485 507.948,970.984 508.542,972.156 511.071,971.458 510.568,972.882 512.162,973.139 510.561,975.576 509.715,975.721 509.375,974.402 508.73,973.533 508.129,973.677 507.686,974.494 505.26,972.954 503.91,973.816 503.219,973.1 502.815,973.862 502.909,974.873 503.353,975.538 506.135,976.263 506.434,976.776 503.4,976.864 502.305,977.667 501.858,977.314 501.842,977.087 501.771,976.092 500.903,975.339 500.479,974.964 500.648,974.507 501.031,973.447 499.909,973.15 498.253,972.715 497.952,973.228 498.094,973.99 498.889,974.703 497.992,975.464 497.78,976.832 497.092,976.68 496.155,975.046 496.662,972.605 496.22,971.948 495.227,972.09 495.15,975.705 494.402,977.174 494.846,977.836 494.55,978.085 493.254,977.928 490.711,980.51 489.613,981.625 489.314,982.536 489.808,982.692 491.499,981.479 493.391,980.726 493.648,979.507 494.001,979.305 494.74,980.228 495.731,980.077 496.024,980.744 495.431,981.198 493.734,981.336 493.483,982.914 491.492,982.805 490.747,983.763 489.059,983.911 488.806,984.665 489.835,987.165 490.181,987.22 492.285,984.683 493.373,984.794 493.47,985.052 492.664,985.885 491.28,987.329 491.37,987.982 492.014,988.199 493.864,986.983 494.219,985.918 495.808,986.079 498.804,982.075 500.295,982.181 500.447,982.596 499.995,983.662 498.985,984.725 498.585,986.039 498.679,987.465 497.042,987.409 496.243,987.809 494.995,989.275 493.904,989.481 492.557,988.755 492.425,989.583 492.149,991.402 490.9,989.441 490.327,988.538 489.422,989.959 489.125,989.807 488.866,988.343 488.69,987.312 486.677,983.18 485.386,982.104 483.406,981.641 483.587,984.032 483.291,984.436 482.846,984.132 482.158,981.68 481.967,980.924 482.216,980.106 482.194,979.933 482.022,978.735 480.883,975.161 480.655,974.456 480.66,973.335 480.701,973.351 482.944,974.011 484.297,971.829 487.786,969.665 488.144,968.641 488.337,968.093 488.936,968.302 489.425,969.472 489.421,970.487 485.827,972.854 486.126,973.819 485.625,974.379 484.581,974.17 484.087,974.628 484.328,975.542 485.021,976.261 486.163,976.316 485.853,977.228 486.308,977.895 487.75,976.525 488.252,975.105 490.251,972.475 490.512,970.34 492.266,966.381 492.944,965.6 493.32,965.172 494.664,964.463 495.62,962.842 495.569,962.13 494.725,961.768 495.774,960.864 496.668,960.613 497.602,962.346 495.604,965.59 494.357,966.494 494.655,966.697 494.651,968.583 496.035,968.132 496.74,966.662 497.336,966.664 497.724,969.308 498.31,970.221 498.917,969.06 499.53,969.327 500.354,969.678 500.506,969.019 501.398,968.364"
   id="polygon2710" />
















<polyline
   fill-rule="evenodd"
   clip-rule="evenodd"
   fill="none"
   stroke="#646464"
   stroke-width="2.8346"
   stroke-linejoin="round"
   stroke-miterlimit="3.8637"
   points="612.268,1133.82 616.307,1130.72 618.641,1130.2 620.504,1129.69 622.355,1128.69 622.31,1127.26 621.324,1125.83 621.265,1123.92 621.69,1122.47 623.615,1123.87 625.48,1123.36 627.841,1123.8 630.22,1124.71 632.083,1124.2 634.405,1123.2 635.769,1121.74 635.253,1120.31 633.318,1118.42 633.756,1117.45 633.71,1116.02 631.771,1114.13 630.773,1112.23 630.243,1110.32 630.654,1108.4 632.033,1107.41 633.884,1106.42 634.808,1105.92 635.215,1103.99 635.174,1102.56 635.084,1099.68 635.45,1096.31 636.785,1093.89 638.149,1092.43 640.467,1091.43 642.316,1090.43 643.243,1089.94 643.668,1088.49 643.623,1087.05 641.712,1086.13 640.743,1085.18 641.11,1081.82 640.125,1080.4 639.627,1079.45 639.583,1078.01 640.491,1077.03 642.354,1076.52 644.75,1077.92 647.171,1080.27 650.446,1079.73 653.629,1076.32 654.921,1072.46 654.833,1069.58 654.743,1066.7 653.624,1060.96 652.156,1059.07 650.203,1056.71 649.203,1054.8 648.702,1053.85 647.703,1051.95 646.703,1050.05 640.887,1044.4 639.39,1041.54 636.832,1034.87 631.881,1026.8 631.793,1023.93 632.672,1021.99 634.037,1020.53 635.432,1020.02 636.827,1019.52 637.706,1017.58 638.115,1015.66 637.131,1014.23 638.997,1013.72 640.406,1013.7 642.255,1012.71 643.632,1011.72 643.515,1007.88 645.699,1002.57 647.034,1000.15 649.734,996.258 650.131,993.852 650.996,991.437 649.967,988.576 648.968,986.676 647.528,985.741 645.589,983.857 643.681,982.931 642.228,981.517 641.667,978.648 641.11,975.78 638.23,973.911 636.308,972.506 631.885,966.347 627.844,957.302 626.83,954.922 626.288,952.532 626.682,950.126 628.517,948.654 630.791,946.215 633.579,945.205 635.383,942.774 636.279,941.319 637.115,937.946 635.131,934.622 637.436,933.141 643.363,927.279 647.519,924.805 649.219,919.017 650.709,906.515 652.441,901.686 653.641,894.948 654.447,890.615 653.89,887.746 656.597,882.655 659.472,881.694 661.387,880.738 662.346,878.837 663.783,877.883 665.698,877.875 669.052,876.44 670.011,875.488 670.97,873.587 671.93,871.686 670.97,868.846 671.451,865.999 672.406,864.099 674.801,860.77 678.157,854.593 681.511,847.941 682.949,844.142 685.348,835.598 685.348,831.805 682.951,830.393 679.12,828.987 675.288,823.787 675.769,819.518 675.288,818.572 673.372,818.579 670.977,821.908 670.018,821.912 668.582,821.444 669.061,817.65 667.625,817.655 664.271,819.092 654.211,822.451 645.585,821.065 637.922,818.251 635.052,817.789 631.216,818.279 631.216,814.96 632.177,807.37 635.531,801.193 637.928,793.123 638.407,790.277 643.677,776.031 644.156,772.237 648.469,770.323 648.949,768.424 645.596,765.593 643.681,764.178 642.722,762.76 642.724,759.441 643.681,757.541 642.724,754.7 641.765,753.281 642.246,745.22 645.121,741.415 648.956,734.762 655.182,729.995 655.182,727.625 654.225,723.836 649.437,713.424 648.478,711.058 646.083,708.697 637.461,699.724 636.504,698.307 637.463,695.931 639.858,692.13 641.296,690.7 644.648,689.739 648.48,691.146 651.834,690.182 653.274,687.806 658.543,666.449 658.066,664.555 656.627,664.088 652.796,664.577 651.837,662.683 649.923,655.106 644.176,647.545 642.74,639.015 640.345,636.656 636.034,636.198 632.68,637.162 613.996,646.246 607.77,647.694 604.416,651.501 601.062,656.73 597.706,661.486 593.395,663.399 589.084,666.736 583.814,668.654 575.672,664.893 570.881,665.386 568.007,663.502 561.301,656.893 563.698,651.193 560.344,650.733 556.99,651.696 554.117,652.18 551.722,650.294 552.681,644.6 552.681,641.282 554.597,637.955 556.035,634.632 555.078,630.842 551.726,625.64 548.374,618.067 549.334,614.747 549.814,610.003 551.25,603.36 552.688,597.664 551.729,594.823 553.647,590.074 554.606,584.855 554.606,582.959 553.649,580.593 551.254,578.232 548.379,576.345 548.381,573.027 549.338,570.654 549.817,567.806 551.733,566.375 555.087,567.31 555.568,567.784 560.834,565.864 562.75,563.011 563.231,561.113 561.315,557.327 560.358,553.065 561.317,549.742 563.233,547.839 564.671,545.463 565.63,544.034 568.025,531.698 566.113,526.966 563.237,527.452 556.531,527.004 556.531,526.057 557.971,522.258 555.094,519.424 553.658,514.69 551.263,509.957 528.27,506.734 521.564,504.391 515.337,502.047 508.15,497.809 511.985,494.949 511.985,490.207 515.339,484.03 516.298,478.336 520.612,473.577 524.444,473.088 532.105,475.427 540.73,472.548 543.605,469.216 539.292,469.233 533.066,466.888 529.713,464.057 530.193,461.686 533.067,458.828 530.672,455.046 530.672,452.675 530.674,448.882 528.279,446.521 518.219,441.348 519.178,439.447 521.573,438.016 525.406,436.103 527.322,435.146 526.846,431.83 528.281,430.877 529.242,429.45 528.76,427.082 523.015,423.311 519.659,424.272 517.264,427.127 505.766,434.76 501.455,434.778 490.436,433.402 485.168,434.845 480.855,434.865 474.628,431.571 466.486,433.026 465.528,434.452 461.694,434.941 456.902,434.489 455.466,434.018 453.071,432.606 457.381,433.536 458.822,431.161 460.258,430.207 461.217,426.884 464.571,424.027 467.924,422.591 473.675,419.248 477.986,416.858 477.986,413.54 477.986,411.644 483.252,409.726 483.252,407.356 484.213,404.98 485.651,402.604 485.651,399.286 484.215,396.446 477.988,392.679 472.241,387.962 464.097,387.995 460.745,386.586 458.349,384.224 453.557,379.979 453.557,378.083 451.162,377.143 446.855,378.11 444.939,376.22 442.544,374.334 441.104,374.813 439.188,375.77 438.231,374.353 437.272,372.934 435.356,373.89 432.961,374.372 432.004,372.955 429.609,370.594 426.735,372.503 424.339,370.616 422.903,367.303 419.549,367.792 417.634,367.324 413.8,368.288 411.885,367.823 413.323,364.498 412.843,361.655 412.366,358.337 414.282,352.641 414.763,348.372 413.325,345.533 409.014,345.076 407.577,341.29 409.972,337.961 414.283,337.469 417.16,339.828 421.471,343.129 429.134,341.676 434.403,338.334 437.278,338.797 443.984,335.925 445.901,331.175 450.212,328.788 456.92,328.287 458.836,325.908 459.317,319.742 456.92,317.381 453.568,313.604 453.57,306.966 457.403,303.156 456.924,299.841 454.049,297.479 444.948,298.939 435.367,300.876 431.055,297.576 427.705,293.321 426.268,289.535 421.957,285.76 418.602,282.454 410.462,284.384 408.067,282.023 405.67,281.085 404.712,275.874 400.88,267.828 398.009,266.894 394.653,269.751 392.738,270.708 389.863,272.141 386.989,273.575 384.593,271.214 382.68,262.689 381.723,243.254 357.768,254.256 352.02,254.28 346.273,252.408 332.861,251.042 329.029,250.109 323.76,249.656 318.49,248.254 317.533,244.941 315.138,243.527 312.263,241.168 310.827,238.329 310.349,232.643 307.954,228.385 306.997,225.07 307.477,221.75 307.956,219.851 304.125,217.023 300.291,217.511 296.459,216.107 291.19,216.129 286.879,217.095 284.484,217.576 284.004,216.157 280.652,210.481 277.776,210.968 274.901,212.401 272.986,211.461 272.031,207.671 267.718,203.896 261.491,201.077 253.828,198.265 244.25,189.295 240.418,179.828 228.444,165.656 223.174,165.202 218.384,168.542 216.948,164.754 215.99,161.913 215.032,159.545 214.552,157.179 215.034,152.434 213.599,148.647 211.683,144.389 208.328,142.98 205.455,142.042 204.496,136.831 204.976,133.985 204.5,129.721 207.852,126.863 214.079,127.311 216.474,125.877 216.474,124.456 216.476,120.664 215.037,116.876 212.642,115.939 209.29,116.426 206.416,118.808 205.936,123.078 201.625,123.569 197.793,124.058 197.793,120.741 197.793,117.42 195.396,116.958 191.565,115.076 190.61,112.71 185.818,111.308 181.986,108.951 181.507,107.057 182.467,101.364 186.778,98.976 190.61,98.487 193.964,97.523 191.569,95.162 188.216,94.701 185.818,93.29 185.342,89.499 183.426,88.56 180.552,89.993 174.325,95.709 171.449,99.038 168.574,98.576 166.658,95.74 163.784,93.856 165.701,91.003 164.265,89.586 164.746,86.266 160.434,86.283 157.559,87.242 154.685,89.15 152.769,87.261 149.894,82.534 152.291,81.575 154.207,79.197 153.248,75.406 150.375,73.522 147.021,74.958 144.626,74.496 144.147,73.549 142.71,70.711 138.399,68.357 137.92,69.781 137.92,72.152 137.441,74.999 135.525,76.903 133.607,75.963 129.776,75.031 126.424,72.2 127.86,70.296 128.339,67.925 126.426,64.612 122.592,63.205 120.677,64.636 118.108,64.139 115.886,63.709 114.926,60.393 112.534,58.032 113.491,54.709 117.324,52.799 117.324,50.427 115.888,49.486 112.534,50.922 109.178,51.883 104.871,49.057 101.517,51.914 96.249,52.883 85.868,58.019"
   id="polyline2744" />
<polygon
   fill-rule="evenodd"
   clip-rule="evenodd"
   fill="none"
   stroke="#646464"
   stroke-width="2.8346"
   stroke-linejoin="round"
   stroke-miterlimit="3.8637"
   points="246.473,303.587 243.788,303.459 241.822,300.419 240.904,297.903 241.066,294.109 242.809,293.335 244.799,294.855 246.279,298.065 247.65,302.216 246.473,303.587"
   id="polygon2746" />
<path
   fill-rule="evenodd"
   clip-rule="evenodd"
   fill="none"
   stroke="#646464"
   stroke-width="1.7008"
   stroke-linejoin="round"
   stroke-miterlimit="3.8637"
   d="  M155.318,217.677l6.57-2.443c0,0,0.75-2.75,1.25-4.75s0.25-6.25,0.25-6.25s-2.5-2.75-2.5-3.75s-1.25-4.5,1-6.5s5.75-5.25,6.5-6.25  s0.5-2,2.75-1.75s2.75,0.75,4.25,0s5-3.75,6.5-3.75s4-0.5,4.25-1.5s-0.75-4.75,0.75-4.75s10.5-0.25,10.5-0.25l12-6.5l6,0.25  l2.996-0.943"
   id="path2748" />
<path
   fill-rule="evenodd"
   clip-rule="evenodd"
   fill="none"
   stroke="#646464"
   stroke-width="1.7008"
   stroke-linejoin="round"
   stroke-miterlimit="3.8637"
   d="  M244.145,311.462c0,0,3.243-0.477,4.993-0.477s1.75,0.75,2,2.25s0.75,3.75,2.75,2.75s3.25-1.25,4.25-1.25s2.75-0.75,1.25-3  s-3.25-5-1-5.5s3.25-0.75,4.25-1s5-4,5-4s3-3.75,5-3.25s4,0.25,4,0.25l3.25-3c0,0,2-1.75,2-2.75s0-4,0-4s3.5,0,5,1.75s3,3,3,3  l2.25-0.5l2-0.5c0,0-2.25-4.25,0.25-4.25s4.25,0.25,4.25,0.25s0.75-3.25,2.25-4s2.75-3.25,1.25-4.25s-3.5-3.25-2-4.25  s2.25-1.75,4.25-1.75s10.25,0.5,13.5,0.75s10,1.75,10,1.75s3.25-1.25,2.25-2.25s-2.25-0.5-0.75-2.25s1.75-2.5,1-3.75  s-2.25-3,0.5-3.5s4.75-2.25,3.75-3.5s-3.25-3-3.25-3s-0.75-2,0.25-3s1.223-4.193,1.223-4.193"
   id="path2750" />
<path
   fill-rule="evenodd"
   clip-rule="evenodd"
   fill="none"
   stroke="#646464"
   stroke-width="1.7008"
   stroke-linejoin="round"
   stroke-miterlimit="3.8637"
   d="  M310.388,448.985c0,0,2.75-0.25,4.25-1s2.25-2.25,2.25-3.5s-0.5-3,1-5s3.5-0.5,4.75,0s2.25-0.25,3-1.75s1.25-2.75-0.5-3.5  s-3.5-1.5-3.5-1.5l-2.5-3.5c0,0,3.5-0.25,4-2s2.5-3.25,3.75-4s4.75-2,4.75-2s3.5-2,6.25-2s4.25,0.25,4.5-1.25s1-3.75,2-4  s2.25,0,3.25,1s2.5,2.25,2.5,2.25s7.75-2.25,10.25-2.5s7.25-1.75,8.25-2.75s4.5-6,6.75-6s4.5,0,4.5,0s-0.25-1-0.25-2.5  s0.5-3.5-0.75-3.75s-4.25-2-4.25-2s-1.75-2.25,0.25-3.5s3-4.25,3-4.25s0.25-5,0.25-6s0.75-3.25,1.75-3.75s2.75-3.25,2.75-3.25  l3.5-3.25c0,0,1.5-0.5,2.25,1s2.5,1.75,2.5-0.25s0-5,0-5s1-3.25,3.5-3.75s4.25-3.25,3-4s-3.5-3.25-1.5-3.25  s16.478-0.147,16.478-0.147"
   id="path2752" />
<path
   fill-rule="evenodd"
   clip-rule="evenodd"
   fill="none"
   stroke="#646464"
   stroke-width="1.7008"
   stroke-linejoin="round"
   stroke-miterlimit="3.8637"
   d="  M387.138,373.32l-3.25-5.085l-2.25-2.25c0,0-0.5-0.25-2-0.25s-2.75-1.25-4.25-3s-0.25-3.75,0-6.75s-4.75-2-6-1.75  s-2.75,2.25-4.25,3.25s-3.75,0.25-5,0s-3-1.75-4-3s-2-2.5-5-2.75s-5.25-4.25-5.25-4.25s-0.5-3.5-0.75-5s-5.25-4.5-7.75-5  s-4.25-3.5-4.75-4.5s-3.75-8.5-3.75-8.5s0-5.75-1.25-7s0.25-2.75,2.5-3.25s-0.25-2.75-2-3.25s-4,0.5-5,1s-2.25,1-3.25,1.5  s-4-1.5-4.75-2.5s-2.75-3.25-2.75-3.25s-2.5-2.75-3.75-3.75s-3.5-2.5-5.25-4.25s-1.25-2.5,0-3.75s0.5-3.5,0.5-3.5l-5.25-4.25"
   id="path2754" />
<path
   fill-rule="evenodd"
   clip-rule="evenodd"
   fill="none"
   stroke="#646464"
   stroke-width="1.7008"
   stroke-linejoin="round"
   stroke-miterlimit="3.8637"
   d="  M345.138,561.985c0,0,3.5-4.5,6.25-4.5s7.25,0.5,7.25,0.5l5-4.25l4.5-1c0,0,2.75-2.5,3.5-3.75s2.25-2.5,4.25-0.75s1.75,2.75,5,1.75  s5.25-2,8.75,0.25s6-0.25,6-1.5s0.5-3.25,2.5-4.25s4-3.5,4-3.5l-1-6c0,0,2.75,1,4.75,0.75s3.25-1,5,1.75s2.5,3.25,5,3.25  s5.75-0.75,7.75,0.75s5,1.5,6.25,1.5s5.25,0.25,6.5,0.25s2.75-0.75,3.5-1.75s2.5-4,6-2s4.25,1.75,6.5,2s5,0,6-0.5s3.25-0.5,3.25-0.5  h2.5c0,0,2.5,3.5,1,5.5s-2.75,5.75-3.25,6.75s-1,2.75-1,2.75l1.25,4.75l-5.25,3.5l-4,2.25c0,0-2.5,2-1.25,4s1.75,3-0.5,4.75  s-3,3.75-3,3.75l7.25,6.5l-1.5,6.5l14.25,13.75l6.75,0.75c0,0,4,3.5,4.75,4.75s2.25,2.25,3.75,2.5s3.5,2.5,3.5,2.5l3,0.25l4.5,0.5  l3.25,3.5l0.75,3.25c0,0,1.5,2.5,2.5,2.75s2.75,2,3.75,2.75s2.25,0.75,3.25,0.75s2.25-0.25,3.5,0s1.5,0.5,2.25,1.5  s2.25,2.75,2.25,2.75s2.75-0.75,4.25-0.75s5.25,0.5,7.5,0s5-1.5,6,0.25s1,3-1.25,3.5s-3.25,1.5-2.25,2.5s1.25,2,3.5,1.5  s4.25-2.5,5.75-0.75s3.5,1,5-0.5s3.5-3,4.75-2.25s4,2.25,4,2.25"
   id="path2756" />
<path
   fill-rule="evenodd"
   clip-rule="evenodd"
   fill="none"
   stroke="#646464"
   stroke-width="1.7008"
   stroke-linejoin="round"
   stroke-miterlimit="3.8637"
   d="  M369.888,550.735c0,0-0.25-3.5-2-5.5s-3.75-4.5-4.75-5.25s-1.75-2.25-1.5-3.25s0.25-3,1.25-4.75s1-3.25,0.25-4.5s-1-4.5-1-4.5v-4.5  l7.25,0.5c0,0,3.75-0.25,5.25,1.75s4,4.25,4,4.25l3.5-1.75c0,0,3-3,1-4.75s-3.75-3.75-3.75-3.75s0.75-1.25,2.25-2.75s3-3.25,3-3.25  s1.25-2,4-1s3-0.5,3-2s0.25-4,2.75-4s4.75,0.5,5.5,2.25s1,2,2.5,1.25s5-1.75,6,1s2.25,2.75,4,1s5.25-5,5.25-5s4.75-3.75,6.75-1.5  s4.25,3.25,4.25,3.25l3.75-0.25c0,0-3-6-3.75-7.5s-0.75-2.25,0.5-3.5s3.75-2.5,3.75-4s0-2.25,2-1.75s4.75-1.25,4.75-1.25  s2.25-3-0.75-3s-6-0.25-6-0.25l-3.25-2.25l1-3.25l-4.75-3c0,0-1.5,1-2.5,2s-2.25,0.75-2.25-1.25s-2.5-6.25,0.5-6.25s6.5-1,7.75-1  s4.25-2.25,5.25-4s3.5-5.75,6-5s4.25,0.75,4.25,0.75s0.25-2.75,0.25-3.75s0.75-3.25,2-3.5s4-2.25,2.5-4.5s-5.5-8.5-5.5-8.5  l-1.25-6.5c0,0,3.5-0.25,4.5-0.5s5.683,0.622,5.683,0.622"
   id="path2758" />
<path
   fill-rule="evenodd"
   clip-rule="evenodd"
   fill="none"
   stroke="#646464"
   stroke-width="1.7008"
   stroke-linejoin="round"
   stroke-miterlimit="3.8637"
   d="  M393.513,680.86c0,0-0.625-4.125,1.625-4.625s10.25-3,10.25-3l7.75-1.5l4,4c0,0,2.5,1,3.5,0.75s2,0,3.25,1s2.75,1.5,3.5-0.75  s1.25-3.5-0.5-4.25s-3-2.75-2.5-3.75s0.25-2,1.75-2.5s4.5-2,4.5-2s9.25-2.25,11-4s4.75-5.75,4.75-5.75l3.75-4.75c0,0,4.5,2,6.5,0.75  s4.5-1.75,6-0.5s3,1.5,4.5,1.25s3.75-1,5.25,0s6.5,0.5,9.5,0.5s5,0.75,6,1.75s4.5,1.5,4.5-0.25s0-3.5,0-3.5s6.5,3.5,7.75,3.5  s3,0.75,4-0.25s5-1.75,6.5-0.25s6.5,4.25,6.5,4.25s6,0,7.25,0s2.5-2.25,2.5-2.25s2.75-1,4-0.25s7,2,7.5,0.75s0.5-3.25,3-3  s5.25-1.5,6.75,0.75s2,3,4.5,3s8.5,0,8.5,0"
   id="path2760" />
<path
   fill-rule="evenodd"
   clip-rule="evenodd"
   fill="none"
   stroke="#646464"
   stroke-width="1.7008"
   stroke-linejoin="round"
   stroke-miterlimit="3.8637"
   d="  M441.888,761.235c0,0,8.5-0.5,9.75,0s3,0.5,4.25-0.75s5-5,6.75-3.25s3,1.75,4,1s1-1.5,1-2.75s-2.25-5.5,0.75-4.75  s3.75-0.25,5.25-0.25s7,1.75,4,3.75s-3.5,2.75-1.25,5s1.75,3,4.25,3s3-1,3.75,1.25s6,3.25,4.5-1s-1.5-5.5,0-6.75s3-2.25,4.5,0  s5.25,3.5,5.25,1.5s0.5-3.25,1.75-3.25s3.25,0.25,3.25,0.25"
   id="path2762" />
<path
   fill-rule="evenodd"
   clip-rule="evenodd"
   fill="none"
   stroke="#646464"
   stroke-width="1.7008"
   stroke-linejoin="round"
   stroke-miterlimit="3.8637"
   d="  M468.638,930.735c0,0,1.75-0.5,4-1.75s6-3,6-3s1.75,5,2.5,6.25s1.5,2.5,2.75,2.5s10.75-3,12.5-3.5s7.25-3.25,8.25-4.25s10-6,10-6"
   id="path2764" />
<path
   fill-rule="evenodd"
   clip-rule="evenodd"
   fill="none"
   stroke="#646464"
   stroke-width="1.7008"
   stroke-linejoin="round"
   stroke-miterlimit="3.8637"
   d="  M635.383,942.774l-3.995,0.21c0,0-3-0.5-4.25-1.5s-4.5-0.5-8-0.5s-9.25-4.5-10.25-6s-4.5-0.5-6.25-2.5s-4.25-0.5-5-1.75  s-2-1.5-4.75-1.25s-3.25,0.25-4.75-0.75s-3.5-2.5-5.25-2.5s-2.25-0.75-3.75-2.25s-5-2.75-5-2.75l-0.5,6c0,0,3,1.5,5.25,1.75  s2,4-0.5,4.75s-4.5,0-6.25-1s-3.75-1.75-4.75-1.75s-6.25,0.25-6.25,0.25s-2.75,1-4.75,1.75s-2.25,3-2.25,4.25s-0.75,2.25-1.75,2.25  s-5-0.75-5-0.75s-2.25-2.5-4-3.5s-4.25-0.25-5.75,0s-3.25,3.25-3.25,3.25s0.25,2.25,1,3.25s0.5,2.25-0.5,3s-2.5,0.5-5.25-0.75  s-2.75-0.75-4.75-2s-3,0.75-4.5,0.5s-3.25,0-5.5,0.5s-2.25-1.25-2.25-2.5s0-6.25,0-6.25s2.75-1.25,2.75-3.5s0-5.25,0-5.25l-0.75-4.5  l-1.75-2.5c0,0-0.75-1-0.75-2.25s0-2-1.75-2.5s-3-3.5-3.5-4.5s-1.75-3.25-0.5-4.25s2.25-2,2-3.5s-1.5-2.75-0.5-4s1.25-3.25,0.25-4  s-3-4-2.75-5.5s0.75-3,0.75-3l-3.5-4.5c0,0-2-1.5-3.75-1.5s-5.25-0.25-5.75-1.25s-2.25-1.75-2.25-1.75s-2.5,0-3.75,0  s-5.5,0.25-4,2.5s2.75,4.5,0.5,5.5s-7.75,1.25-9.5,1.25s-5,0.25-5,0.25s-1.75-1-2.5-2s-3.25-2.5,0.75-3.75s4.25-1.25,5.25-2  s3.5-1.25,2-3.25s-3.75-6.5-2.25-7.75s2.5-3.5,2.5-3.5s-0.75-5.75-2.5-7.5s-2.25-4-1-5.75s2-6.75,2-6.75l-2.75-4.25  c0,0-9-7-14.125-7.25c-3.124-0.152-7.375-0.75-8.875-0.5s-4.25,0-4.25,0l2.75-9.75c0,0,1.25-17.25,1.25-18.75s0.25-4.625-1-6.125  s-2.5-2.125-3.75-3.125s-1.75-3.25-0.5-5.5s0.809-3.818,0.125-6.75c-0.875-3.75-1.125-5.75-1.875-7.25s-0.875-2.625-0.375-4.125  s2.25-5,2.25-5l-0.375-3.625c0,0-2.623-6.465-3.5-8c-0.5-0.875,0.625-1.875-2.875-1.875s-3.25,0.125-5.5-0.375  s-5.25-2.125-5.25-2.125s-2-0.125-2,0.875s0.75,4.375,0.75,5.375s0.375,2.25-2.375,3.375c-1.157,0.473-4.5,2.25-4.5,2.25"
   id="path2766" />
<path
   fill-rule="evenodd"
   clip-rule="evenodd"
   fill="none"
   stroke="#646464"
   stroke-width="1.7008"
   stroke-linejoin="round"
   stroke-miterlimit="3.8637"
   d="  M474.888,863.235c0,0,4-0.5,5.5-2.5s3-2.75,4.5-1.5s1.5,1.25,1.5,1.25s0.75,0,2.5,0s5.25,0.75,5.25,0.75s0.75-3.25,0.75-4.25  s1-2.5,2-3.75s1.75-2.75,3.75-3.25s4.75-2.75,5.75-3.75s0.5-2,4.5-1.75s4,0.75,5.75,1.25s2,1.75,2,3s0.75,2.25,1.75,3.25  s3.25,1,3.25,1s1.25-4.5,2.75-5.25s4.5-1.25,3.5,1.25s-1.25,4.25,0.75,4.75s2.5,1,2.75,2.5s1.25,3,2.75,1.75s1.25-1.75,2.75-1.75  s3.5,0,3.5-1.75s1.25-2.75,4-1.5s4.25,1.75,6.5,1.25s6-1.75,6-1.75l4.5,2l8.5,6l2.75,0.75c0,0-0.75-5.25,0.25-6.5s3.25-2.5,3.25-2.5  s4.5-1.25,5.5-2s2-3.5,2-5s1.5-4.5-0.25-5s-2.5,0.5-3.5,1.5s-2.75,2-3.5,0.25s-2.5-3.5-4.25-3.5s-3.75,0-3.75,0l-7.75-5.25  c0,0-2-4.25-1.75-5.25s-0.25-2.75,1.75-4.5s2.5-3.75,2-5.5s0-5.5,0-6.5s1.5-3.25,4-1s4.75,2.25,4.5-0.75s-1.25-5.75-3-6.75  s-3.75-3.75-4-5s-1.25-10.25-1.25-10.25s-1-0.25-2-1.25s-1.25-2.5-2.5-1s-3.25,1.5-4.5,0.5s-5.75-6.25-5.75-6.25  s-0.5-1.25-1.25-2.75s-1-2.25-3-3.5s-10-8.75-12.25-9.75s-3-1.75-4.5-0.5s-2.75,2.25-5,1.5s-6.5-2.75-6.5-2.75l-3.5-2.75  c-1-1-2.75-3.75-4.25-2s-3,1.75-4.25,1s-2.25-2.75-2-4s0.25-4.25,0.25-4.25s-1-1.75-1.75-3s-0.25-4.25-0.25-4.25l0.25-2.25  l9.25-0.25c0,0,1.75,0.75,2.75,2s3.75,0.5,5,0.25s4-1.75,3.75-2.75s0.5-2-1.25-2s-4.25,0-4.25,0s-1.25-2.5,1.5-3.5s4.25-3,4.25-4  s0.75-4.5,0.75-4.5s1.5-3.25,4-1.75s3,1.5,4.25,1.5s2.25-0.5,2.25-1.5s0.5-6.5,0.5-6.5l1.75-5c0,0,2-1.75,3.75-0.5  s2.25,1.75,3.5,1.75s3.25-0.5,3.25-0.5l1-2c0,0-2.5-1.5-3.5-2.5s-9.75-6-9.75-6s-9-8.5-10.25-9s-6-3.5-6-3.5s-6.25-1.75-7.5-3.5  s-4.5-4-4.5-4l-3-1.75c0,0,1.75-5,2.25-6s4-4,5.25-4.75s3.25-4,3.75-5.5s2.25-7.75,2.25-7.75"
   id="path2768" />
<path
   fill-rule="evenodd"
   clip-rule="evenodd"
   fill="none"
   stroke="#646464"
   stroke-width="1.7008"
   stroke-linejoin="round"
   stroke-miterlimit="3.8637"
   d="  M578.138,852.235c0,0,2.25,2,4.75,2s5-0.25,7-0.25s3.75,1.25,3.75,1.25s0.75,2.25-0.25,2.75s-1.75,1.25-0.25,2.5s3.75,2.5,5.25,1.5  s4-1.75,4.75-0.5s1.25,1.75,2.75,1.75s2,0.75,1.25-1.75s-2.5-5.5-2.5-5.5l5.25-5.25l15-7l2,3.75l5.5-1l5.5,5l-0.25,4.75  c0,0,0.25,3,2.25,3.25s5,0.75,5.25,3s0.5,4,1.5,5s2.75,4.75,0.5,5.5s-3,2-2.25,3.25s0.25,3.25,0,4.25s-1,5-2.5,6.75  s-2.5,2.5-1.5,3.75s1.25,2.75,3.25,2.75s4.5-1.75,4.5-1.75s0.25-0.25,2,0.5s3.003,2.463,3.003,2.463"
   id="path2770" />
<path
   fill-rule="evenodd"
   clip-rule="evenodd"
   fill="none"
   stroke="#646464"
   stroke-width="1.7008"
   stroke-linejoin="round"
   stroke-miterlimit="3.8637"
   d="  M505.013,1007.561c0,0,3.125-1.827,5.125-0.577s4.25,4.75,4.25,4.75s0,2.75,3.75,2.75s4.25-2.5,5.5-3.25s3.5-2.5,3.5-2.5  s8.75-1,10.75-1s3-0.75,3-2s-0.75-3-1.75-4s-3-3.5-3-3.5s3.75-1.25,6-0.25s6.25,0.5,6.25,0.5s0.5,2.5,2.25,3.25s2.75,2,3,3.5  s2.5,3,4.75,3s4.5-1.75,4.5-1.75l3.5-0.75c0,0,3.75,8.75,4.25,10.5s2.75,2.75,4.75,1.75s3.75-1.5,5.5-1.25s2.75-0.5,3.25-1.75  s2.75-6.25,5-3s3.75,4.25,6,3.75s2.75-1.75,2-3.5s-1.75-5.25-0.25-7.25s3.25-5,3.25-5s2.75,0.25,5,0.5s12.75,4.5,12.75,4.5  s1.25,0.75,2,2.25s1.75,3,3.25,3.25s5,1.25,5,1.25l8.993,2.5"
   id="path2772" />
<text
   xml:space="preserve"
   style="font-style:normal;font-weight:normal;line-height:0%;font-family:Arial;fill:#000000;fill-opacity:1;stroke:none;stroke-width:1px;stroke-linecap:butt;stroke-linejoin:miter;stroke-opacity:1"
   x="554.65521"
   y="1076.031"
   id="text3272"><tspan
     sodipodi:role="line"
     id="tspan3274"
     x="554.65521"
     y="1079.3401"
     style="font-size:64px;line-height:1.25" /></text>

<text
   xml:space="preserve"
   style="font-style:normal;font-weight:normal;line-height:0%;font-family:Arial;fill:#000000;fill-opacity:1;stroke:none;stroke-width:1px;stroke-linecap:butt;stroke-linejoin:miter;stroke-opacity:1"
   x="432.94138"
   y="890.48071"
   id="text3276"><tspan
     sodipodi:role="line"
     id="tspan3278"
     x="432.94138"
     y="893.78979"
     style="font-size:64px;line-height:1.25" /></text>













</svg>